<mxfile host="Electron" modified="2024-03-14T09:46:56.009Z" agent="Mozilla/5.0 (Windows NT 10.0; Win64; x64) AppleWebKit/537.36 (KHTML, like Gecko) draw.io/24.0.4 Chrome/120.0.6099.109 Electron/28.1.0 Safari/537.36" etag="vsS9qsaHr4-5bg8zbwJs" version="24.0.4" type="device">
  <diagram name="Pagina-1" id="JRS17z3bc4VO67Z7Qqhp">
    <mxGraphModel dx="1753" dy="1729" grid="1" gridSize="10" guides="1" tooltips="1" connect="1" arrows="1" fold="1" page="1" pageScale="1" pageWidth="827" pageHeight="1169" math="0" shadow="0">
      <root>
        <mxCell id="0" />
        <mxCell id="1" parent="0" />
        <mxCell id="E4h3NQ1jbNbWEJE0jLHC-57" style="edgeStyle=orthogonalEdgeStyle;rounded=0;orthogonalLoop=1;jettySize=auto;html=1;entryX=0;entryY=0.5;entryDx=0;entryDy=0;" parent="1" source="E4h3NQ1jbNbWEJE0jLHC-1" target="E4h3NQ1jbNbWEJE0jLHC-14" edge="1">
          <mxGeometry relative="1" as="geometry" />
        </mxCell>
        <mxCell id="E4h3NQ1jbNbWEJE0jLHC-58" style="edgeStyle=orthogonalEdgeStyle;rounded=0;orthogonalLoop=1;jettySize=auto;html=1;entryX=0;entryY=0.5;entryDx=0;entryDy=0;" parent="1" source="E4h3NQ1jbNbWEJE0jLHC-1" target="E4h3NQ1jbNbWEJE0jLHC-16" edge="1">
          <mxGeometry relative="1" as="geometry" />
        </mxCell>
        <mxCell id="E4h3NQ1jbNbWEJE0jLHC-59" style="edgeStyle=orthogonalEdgeStyle;rounded=0;orthogonalLoop=1;jettySize=auto;html=1;entryX=0;entryY=0.5;entryDx=0;entryDy=0;" parent="1" source="E4h3NQ1jbNbWEJE0jLHC-1" target="E4h3NQ1jbNbWEJE0jLHC-18" edge="1">
          <mxGeometry relative="1" as="geometry" />
        </mxCell>
        <mxCell id="E4h3NQ1jbNbWEJE0jLHC-60" style="edgeStyle=orthogonalEdgeStyle;rounded=0;orthogonalLoop=1;jettySize=auto;html=1;entryX=0;entryY=0.5;entryDx=0;entryDy=0;" parent="1" source="E4h3NQ1jbNbWEJE0jLHC-1" target="E4h3NQ1jbNbWEJE0jLHC-20" edge="1">
          <mxGeometry relative="1" as="geometry" />
        </mxCell>
        <mxCell id="E4h3NQ1jbNbWEJE0jLHC-78" style="edgeStyle=orthogonalEdgeStyle;rounded=0;orthogonalLoop=1;jettySize=auto;html=1;entryX=1;entryY=0.5;entryDx=0;entryDy=0;" parent="1" source="E4h3NQ1jbNbWEJE0jLHC-1" target="E4h3NQ1jbNbWEJE0jLHC-76" edge="1">
          <mxGeometry relative="1" as="geometry" />
        </mxCell>
        <mxCell id="E4h3NQ1jbNbWEJE0jLHC-96" style="edgeStyle=orthogonalEdgeStyle;rounded=0;orthogonalLoop=1;jettySize=auto;html=1;" parent="1" source="E4h3NQ1jbNbWEJE0jLHC-1" edge="1">
          <mxGeometry relative="1" as="geometry">
            <mxPoint x="620" y="240" as="targetPoint" />
            <Array as="points">
              <mxPoint x="660" y="170" />
              <mxPoint x="620" y="170" />
            </Array>
          </mxGeometry>
        </mxCell>
        <mxCell id="E4h3NQ1jbNbWEJE0jLHC-1" value="CAMERE" style="rounded=0;whiteSpace=wrap;html=1;" parent="1" vertex="1">
          <mxGeometry x="630" y="40" width="120" height="60" as="geometry" />
        </mxCell>
        <mxCell id="E4h3NQ1jbNbWEJE0jLHC-61" style="edgeStyle=orthogonalEdgeStyle;rounded=0;orthogonalLoop=1;jettySize=auto;html=1;entryX=0;entryY=0.5;entryDx=0;entryDy=0;" parent="1" source="E4h3NQ1jbNbWEJE0jLHC-2" target="E4h3NQ1jbNbWEJE0jLHC-31" edge="1">
          <mxGeometry relative="1" as="geometry" />
        </mxCell>
        <mxCell id="E4h3NQ1jbNbWEJE0jLHC-62" style="edgeStyle=orthogonalEdgeStyle;rounded=0;orthogonalLoop=1;jettySize=auto;html=1;entryX=0;entryY=0.5;entryDx=0;entryDy=0;" parent="1" source="E4h3NQ1jbNbWEJE0jLHC-2" target="E4h3NQ1jbNbWEJE0jLHC-33" edge="1">
          <mxGeometry relative="1" as="geometry" />
        </mxCell>
        <mxCell id="E4h3NQ1jbNbWEJE0jLHC-63" style="edgeStyle=orthogonalEdgeStyle;rounded=0;orthogonalLoop=1;jettySize=auto;html=1;entryX=0;entryY=0.5;entryDx=0;entryDy=0;" parent="1" source="E4h3NQ1jbNbWEJE0jLHC-2" target="E4h3NQ1jbNbWEJE0jLHC-35" edge="1">
          <mxGeometry relative="1" as="geometry" />
        </mxCell>
        <mxCell id="E4h3NQ1jbNbWEJE0jLHC-81" style="edgeStyle=orthogonalEdgeStyle;rounded=0;orthogonalLoop=1;jettySize=auto;html=1;endArrow=doubleBlock;endFill=1;" parent="1" source="E4h3NQ1jbNbWEJE0jLHC-2" target="E4h3NQ1jbNbWEJE0jLHC-82" edge="1">
          <mxGeometry relative="1" as="geometry">
            <mxPoint x="115" y="359" as="targetPoint" />
            <Array as="points">
              <mxPoint x="60" y="360" />
              <mxPoint x="60" y="360" />
            </Array>
          </mxGeometry>
        </mxCell>
        <mxCell id="E4h3NQ1jbNbWEJE0jLHC-2" value="CLIENTI" style="rounded=0;whiteSpace=wrap;html=1;" parent="1" vertex="1">
          <mxGeometry x="-85" y="329" width="120" height="60" as="geometry" />
        </mxCell>
        <mxCell id="E4h3NQ1jbNbWEJE0jLHC-54" style="edgeStyle=orthogonalEdgeStyle;rounded=0;orthogonalLoop=1;jettySize=auto;html=1;entryX=0;entryY=0.5;entryDx=0;entryDy=0;" parent="1" source="E4h3NQ1jbNbWEJE0jLHC-3" target="E4h3NQ1jbNbWEJE0jLHC-7" edge="1">
          <mxGeometry relative="1" as="geometry" />
        </mxCell>
        <mxCell id="E4h3NQ1jbNbWEJE0jLHC-55" style="edgeStyle=orthogonalEdgeStyle;rounded=0;orthogonalLoop=1;jettySize=auto;html=1;entryX=0;entryY=0.5;entryDx=0;entryDy=0;" parent="1" source="E4h3NQ1jbNbWEJE0jLHC-3" target="E4h3NQ1jbNbWEJE0jLHC-10" edge="1">
          <mxGeometry relative="1" as="geometry" />
        </mxCell>
        <mxCell id="E4h3NQ1jbNbWEJE0jLHC-56" style="edgeStyle=orthogonalEdgeStyle;rounded=0;orthogonalLoop=1;jettySize=auto;html=1;entryX=0;entryY=0.5;entryDx=0;entryDy=0;" parent="1" source="E4h3NQ1jbNbWEJE0jLHC-3" target="E4h3NQ1jbNbWEJE0jLHC-12" edge="1">
          <mxGeometry relative="1" as="geometry" />
        </mxCell>
        <mxCell id="E4h3NQ1jbNbWEJE0jLHC-77" style="edgeStyle=orthogonalEdgeStyle;rounded=0;orthogonalLoop=1;jettySize=auto;html=1;entryX=0;entryY=0.5;entryDx=0;entryDy=0;endArrow=doubleBlock;endFill=1;" parent="1" source="E4h3NQ1jbNbWEJE0jLHC-3" target="E4h3NQ1jbNbWEJE0jLHC-76" edge="1">
          <mxGeometry relative="1" as="geometry" />
        </mxCell>
        <mxCell id="E4h3NQ1jbNbWEJE0jLHC-86" style="edgeStyle=orthogonalEdgeStyle;rounded=0;orthogonalLoop=1;jettySize=auto;html=1;entryX=1;entryY=0.5;entryDx=0;entryDy=0;endArrow=doubleBlock;endFill=1;" parent="1" source="E4h3NQ1jbNbWEJE0jLHC-3" target="E4h3NQ1jbNbWEJE0jLHC-84" edge="1">
          <mxGeometry relative="1" as="geometry" />
        </mxCell>
        <mxCell id="E4h3NQ1jbNbWEJE0jLHC-89" style="edgeStyle=orthogonalEdgeStyle;rounded=0;orthogonalLoop=1;jettySize=auto;html=1;entryX=0.5;entryY=1;entryDx=0;entryDy=0;endArrow=doubleBlock;endFill=1;" parent="1" source="E4h3NQ1jbNbWEJE0jLHC-3" target="E4h3NQ1jbNbWEJE0jLHC-88" edge="1">
          <mxGeometry relative="1" as="geometry" />
        </mxCell>
        <mxCell id="E4h3NQ1jbNbWEJE0jLHC-3" value="ALBERGHI" style="rounded=0;whiteSpace=wrap;html=1;" parent="1" vertex="1">
          <mxGeometry x="316" y="40" width="120" height="60" as="geometry" />
        </mxCell>
        <mxCell id="E4h3NQ1jbNbWEJE0jLHC-67" style="edgeStyle=orthogonalEdgeStyle;rounded=0;orthogonalLoop=1;jettySize=auto;html=1;entryX=0;entryY=0.5;entryDx=0;entryDy=0;" parent="1" source="E4h3NQ1jbNbWEJE0jLHC-4" target="E4h3NQ1jbNbWEJE0jLHC-40" edge="1">
          <mxGeometry relative="1" as="geometry" />
        </mxCell>
        <mxCell id="E4h3NQ1jbNbWEJE0jLHC-69" style="edgeStyle=orthogonalEdgeStyle;rounded=0;orthogonalLoop=1;jettySize=auto;html=1;entryX=0;entryY=0.5;entryDx=0;entryDy=0;" parent="1" source="E4h3NQ1jbNbWEJE0jLHC-4" target="E4h3NQ1jbNbWEJE0jLHC-42" edge="1">
          <mxGeometry relative="1" as="geometry" />
        </mxCell>
        <mxCell id="E4h3NQ1jbNbWEJE0jLHC-70" style="edgeStyle=orthogonalEdgeStyle;rounded=0;orthogonalLoop=1;jettySize=auto;html=1;entryX=0;entryY=0.5;entryDx=0;entryDy=0;" parent="1" source="E4h3NQ1jbNbWEJE0jLHC-4" target="E4h3NQ1jbNbWEJE0jLHC-44" edge="1">
          <mxGeometry relative="1" as="geometry" />
        </mxCell>
        <mxCell id="E4h3NQ1jbNbWEJE0jLHC-72" style="edgeStyle=orthogonalEdgeStyle;rounded=0;orthogonalLoop=1;jettySize=auto;html=1;entryX=0;entryY=0.5;entryDx=0;entryDy=0;" parent="1" source="E4h3NQ1jbNbWEJE0jLHC-4" target="E4h3NQ1jbNbWEJE0jLHC-46" edge="1">
          <mxGeometry relative="1" as="geometry" />
        </mxCell>
        <mxCell id="E4h3NQ1jbNbWEJE0jLHC-87" style="edgeStyle=orthogonalEdgeStyle;rounded=0;orthogonalLoop=1;jettySize=auto;html=1;entryX=0;entryY=0.5;entryDx=0;entryDy=0;endArrow=classic;endFill=1;" parent="1" source="E4h3NQ1jbNbWEJE0jLHC-4" target="E4h3NQ1jbNbWEJE0jLHC-84" edge="1">
          <mxGeometry relative="1" as="geometry" />
        </mxCell>
        <mxCell id="E4h3NQ1jbNbWEJE0jLHC-4" value="Dipendenti" style="rounded=0;whiteSpace=wrap;html=1;" parent="1" vertex="1">
          <mxGeometry x="-30" y="40" width="120" height="60" as="geometry" />
        </mxCell>
        <mxCell id="E4h3NQ1jbNbWEJE0jLHC-64" style="edgeStyle=orthogonalEdgeStyle;rounded=0;orthogonalLoop=1;jettySize=auto;html=1;entryX=0;entryY=0.5;entryDx=0;entryDy=0;" parent="1" source="E4h3NQ1jbNbWEJE0jLHC-5" target="E4h3NQ1jbNbWEJE0jLHC-22" edge="1">
          <mxGeometry relative="1" as="geometry" />
        </mxCell>
        <mxCell id="E4h3NQ1jbNbWEJE0jLHC-65" style="edgeStyle=orthogonalEdgeStyle;rounded=0;orthogonalLoop=1;jettySize=auto;html=1;entryX=0;entryY=0.5;entryDx=0;entryDy=0;" parent="1" source="E4h3NQ1jbNbWEJE0jLHC-5" target="E4h3NQ1jbNbWEJE0jLHC-24" edge="1">
          <mxGeometry relative="1" as="geometry" />
        </mxCell>
        <mxCell id="E4h3NQ1jbNbWEJE0jLHC-83" style="edgeStyle=orthogonalEdgeStyle;rounded=0;orthogonalLoop=1;jettySize=auto;html=1;" parent="1" source="E4h3NQ1jbNbWEJE0jLHC-5" target="E4h3NQ1jbNbWEJE0jLHC-82" edge="1">
          <mxGeometry relative="1" as="geometry">
            <Array as="points">
              <mxPoint x="230" y="360" />
              <mxPoint x="230" y="360" />
            </Array>
          </mxGeometry>
        </mxCell>
        <mxCell id="E4h3NQ1jbNbWEJE0jLHC-93" style="edgeStyle=orthogonalEdgeStyle;rounded=0;orthogonalLoop=1;jettySize=auto;html=1;entryX=0.5;entryY=1;entryDx=0;entryDy=0;" parent="1" source="E4h3NQ1jbNbWEJE0jLHC-5" target="E4h3NQ1jbNbWEJE0jLHC-91" edge="1">
          <mxGeometry relative="1" as="geometry" />
        </mxCell>
        <mxCell id="E4h3NQ1jbNbWEJE0jLHC-5" value="Prenotazioni" style="rounded=0;whiteSpace=wrap;html=1;" parent="1" vertex="1">
          <mxGeometry x="245" y="329" width="120" height="60" as="geometry" />
        </mxCell>
        <mxCell id="E4h3NQ1jbNbWEJE0jLHC-73" style="edgeStyle=orthogonalEdgeStyle;rounded=0;orthogonalLoop=1;jettySize=auto;html=1;entryX=0;entryY=0.5;entryDx=0;entryDy=0;" parent="1" source="E4h3NQ1jbNbWEJE0jLHC-6" target="E4h3NQ1jbNbWEJE0jLHC-48" edge="1">
          <mxGeometry relative="1" as="geometry" />
        </mxCell>
        <mxCell id="E4h3NQ1jbNbWEJE0jLHC-74" style="edgeStyle=orthogonalEdgeStyle;rounded=0;orthogonalLoop=1;jettySize=auto;html=1;entryX=0;entryY=0.5;entryDx=0;entryDy=0;" parent="1" source="E4h3NQ1jbNbWEJE0jLHC-6" target="E4h3NQ1jbNbWEJE0jLHC-50" edge="1">
          <mxGeometry relative="1" as="geometry" />
        </mxCell>
        <mxCell id="E4h3NQ1jbNbWEJE0jLHC-75" style="edgeStyle=orthogonalEdgeStyle;rounded=0;orthogonalLoop=1;jettySize=auto;html=1;entryX=0;entryY=0.5;entryDx=0;entryDy=0;" parent="1" source="E4h3NQ1jbNbWEJE0jLHC-6" target="E4h3NQ1jbNbWEJE0jLHC-52" edge="1">
          <mxGeometry relative="1" as="geometry" />
        </mxCell>
        <mxCell id="E4h3NQ1jbNbWEJE0jLHC-90" style="edgeStyle=orthogonalEdgeStyle;rounded=0;orthogonalLoop=1;jettySize=auto;html=1;entryX=0.5;entryY=0;entryDx=0;entryDy=0;endArrow=classic;endFill=1;" parent="1" source="E4h3NQ1jbNbWEJE0jLHC-6" target="E4h3NQ1jbNbWEJE0jLHC-88" edge="1">
          <mxGeometry relative="1" as="geometry" />
        </mxCell>
        <mxCell id="5KknpFdX_ZA_T8gQZbC4-14" style="edgeStyle=orthogonalEdgeStyle;rounded=0;orthogonalLoop=1;jettySize=auto;html=1;entryX=1;entryY=0.5;entryDx=0;entryDy=0;" parent="1" source="E4h3NQ1jbNbWEJE0jLHC-6" target="5KknpFdX_ZA_T8gQZbC4-13" edge="1">
          <mxGeometry relative="1" as="geometry" />
        </mxCell>
        <mxCell id="E4h3NQ1jbNbWEJE0jLHC-6" value="FACILITIES" style="rounded=0;whiteSpace=wrap;html=1;" parent="1" vertex="1">
          <mxGeometry x="146" y="-200" width="120" height="60" as="geometry" />
        </mxCell>
        <mxCell id="E4h3NQ1jbNbWEJE0jLHC-7" value="" style="ellipse;whiteSpace=wrap;html=1;aspect=fixed;fillColor=#020203;" parent="1" vertex="1">
          <mxGeometry x="406" y="110" width="30" height="30" as="geometry" />
        </mxCell>
        <mxCell id="E4h3NQ1jbNbWEJE0jLHC-8" value="Nome" style="text;html=1;align=center;verticalAlign=middle;resizable=0;points=[];autosize=1;strokeColor=none;fillColor=none;" parent="1" vertex="1">
          <mxGeometry x="422" y="110" width="60" height="30" as="geometry" />
        </mxCell>
        <mxCell id="E4h3NQ1jbNbWEJE0jLHC-10" value="" style="ellipse;whiteSpace=wrap;html=1;aspect=fixed;fillColor=#020203;" parent="1" vertex="1">
          <mxGeometry x="406" y="145" width="30" height="30" as="geometry" />
        </mxCell>
        <mxCell id="E4h3NQ1jbNbWEJE0jLHC-11" value="Indirizzo" style="text;html=1;align=center;verticalAlign=middle;resizable=0;points=[];autosize=1;strokeColor=none;fillColor=none;" parent="1" vertex="1">
          <mxGeometry x="424" y="145" width="70" height="30" as="geometry" />
        </mxCell>
        <mxCell id="E4h3NQ1jbNbWEJE0jLHC-12" value="" style="ellipse;whiteSpace=wrap;html=1;aspect=fixed;" parent="1" vertex="1">
          <mxGeometry x="406" y="182" width="30" height="30" as="geometry" />
        </mxCell>
        <mxCell id="E4h3NQ1jbNbWEJE0jLHC-13" value="Valutazione" style="text;html=1;align=center;verticalAlign=middle;resizable=0;points=[];autosize=1;strokeColor=none;fillColor=none;" parent="1" vertex="1">
          <mxGeometry x="422" y="182" width="90" height="30" as="geometry" />
        </mxCell>
        <mxCell id="E4h3NQ1jbNbWEJE0jLHC-14" value="" style="ellipse;whiteSpace=wrap;html=1;aspect=fixed;gradientColor=default;" parent="1" vertex="1">
          <mxGeometry x="720" y="105" width="30" height="30" as="geometry" />
        </mxCell>
        <mxCell id="E4h3NQ1jbNbWEJE0jLHC-15" value="&lt;font style=&quot;font-size: 11px;&quot;&gt;Numero&lt;/font&gt;&lt;div style=&quot;font-size: 11px;&quot;&gt;&lt;font style=&quot;font-size: 11px;&quot;&gt;unico&lt;/font&gt;&lt;/div&gt;&lt;div style=&quot;font-size: 11px;&quot;&gt;&lt;font style=&quot;font-size: 11px;&quot;&gt;per albergo&lt;/font&gt;&lt;/div&gt;" style="text;html=1;align=center;verticalAlign=middle;resizable=0;points=[];autosize=1;strokeColor=none;fillColor=none;" parent="1" vertex="1">
          <mxGeometry x="736" y="95" width="80" height="50" as="geometry" />
        </mxCell>
        <mxCell id="E4h3NQ1jbNbWEJE0jLHC-16" value="" style="ellipse;whiteSpace=wrap;html=1;aspect=fixed;" parent="1" vertex="1">
          <mxGeometry x="720" y="140" width="30" height="30" as="geometry" />
        </mxCell>
        <mxCell id="E4h3NQ1jbNbWEJE0jLHC-17" value="Tipo" style="text;html=1;align=center;verticalAlign=middle;resizable=0;points=[];autosize=1;strokeColor=none;fillColor=none;" parent="1" vertex="1">
          <mxGeometry x="741" y="140" width="50" height="30" as="geometry" />
        </mxCell>
        <mxCell id="E4h3NQ1jbNbWEJE0jLHC-18" value="" style="ellipse;whiteSpace=wrap;html=1;aspect=fixed;" parent="1" vertex="1">
          <mxGeometry x="720" y="177" width="30" height="30" as="geometry" />
        </mxCell>
        <mxCell id="E4h3NQ1jbNbWEJE0jLHC-19" value="Capienza" style="text;html=1;align=center;verticalAlign=middle;resizable=0;points=[];autosize=1;strokeColor=none;fillColor=none;" parent="1" vertex="1">
          <mxGeometry x="746" y="177" width="70" height="30" as="geometry" />
        </mxCell>
        <mxCell id="E4h3NQ1jbNbWEJE0jLHC-20" value="" style="ellipse;whiteSpace=wrap;html=1;aspect=fixed;" parent="1" vertex="1">
          <mxGeometry x="721" y="215" width="30" height="30" as="geometry" />
        </mxCell>
        <mxCell id="E4h3NQ1jbNbWEJE0jLHC-21" value="Tariffa" style="text;html=1;align=center;verticalAlign=middle;resizable=0;points=[];autosize=1;strokeColor=none;fillColor=none;" parent="1" vertex="1">
          <mxGeometry x="741" y="215" width="60" height="30" as="geometry" />
        </mxCell>
        <mxCell id="E4h3NQ1jbNbWEJE0jLHC-22" value="" style="ellipse;whiteSpace=wrap;html=1;aspect=fixed;" parent="1" vertex="1">
          <mxGeometry x="335" y="399" width="30" height="30" as="geometry" />
        </mxCell>
        <mxCell id="E4h3NQ1jbNbWEJE0jLHC-23" value="CheckIN" style="text;html=1;align=center;verticalAlign=middle;resizable=0;points=[];autosize=1;strokeColor=none;fillColor=none;" parent="1" vertex="1">
          <mxGeometry x="361" y="399" width="70" height="30" as="geometry" />
        </mxCell>
        <mxCell id="E4h3NQ1jbNbWEJE0jLHC-24" value="" style="ellipse;whiteSpace=wrap;html=1;aspect=fixed;" parent="1" vertex="1">
          <mxGeometry x="336" y="437" width="30" height="30" as="geometry" />
        </mxCell>
        <mxCell id="E4h3NQ1jbNbWEJE0jLHC-25" value="CheckOut" style="text;html=1;align=center;verticalAlign=middle;resizable=0;points=[];autosize=1;strokeColor=none;fillColor=none;" parent="1" vertex="1">
          <mxGeometry x="356" y="437" width="80" height="30" as="geometry" />
        </mxCell>
        <mxCell id="E4h3NQ1jbNbWEJE0jLHC-31" value="" style="ellipse;whiteSpace=wrap;html=1;aspect=fixed;" parent="1" vertex="1">
          <mxGeometry x="6" y="397" width="30" height="30" as="geometry" />
        </mxCell>
        <mxCell id="E4h3NQ1jbNbWEJE0jLHC-32" value="&lt;span style=&quot;font-size: 11px;&quot;&gt;Nome&lt;/span&gt;" style="text;html=1;align=center;verticalAlign=middle;resizable=0;points=[];autosize=1;strokeColor=none;fillColor=none;" parent="1" vertex="1">
          <mxGeometry x="37" y="397" width="50" height="30" as="geometry" />
        </mxCell>
        <mxCell id="E4h3NQ1jbNbWEJE0jLHC-33" value="" style="ellipse;whiteSpace=wrap;html=1;aspect=fixed;" parent="1" vertex="1">
          <mxGeometry x="6" y="432" width="30" height="30" as="geometry" />
        </mxCell>
        <mxCell id="E4h3NQ1jbNbWEJE0jLHC-34" value="Cognome" style="text;html=1;align=center;verticalAlign=middle;resizable=0;points=[];autosize=1;strokeColor=none;fillColor=none;" parent="1" vertex="1">
          <mxGeometry x="24" y="432" width="80" height="30" as="geometry" />
        </mxCell>
        <mxCell id="E4h3NQ1jbNbWEJE0jLHC-35" value="" style="ellipse;whiteSpace=wrap;html=1;aspect=fixed;" parent="1" vertex="1">
          <mxGeometry x="6" y="469" width="30" height="30" as="geometry" />
        </mxCell>
        <mxCell id="E4h3NQ1jbNbWEJE0jLHC-36" value="Contatto" style="text;html=1;align=center;verticalAlign=middle;resizable=0;points=[];autosize=1;strokeColor=none;fillColor=none;" parent="1" vertex="1">
          <mxGeometry x="32" y="469" width="70" height="30" as="geometry" />
        </mxCell>
        <mxCell id="E4h3NQ1jbNbWEJE0jLHC-40" value="" style="ellipse;whiteSpace=wrap;html=1;aspect=fixed;" parent="1" vertex="1">
          <mxGeometry x="55" y="111" width="30" height="30" as="geometry" />
        </mxCell>
        <mxCell id="E4h3NQ1jbNbWEJE0jLHC-41" value="&lt;span style=&quot;font-size: 11px;&quot;&gt;Nome&lt;/span&gt;" style="text;html=1;align=center;verticalAlign=middle;resizable=0;points=[];autosize=1;strokeColor=none;fillColor=none;" parent="1" vertex="1">
          <mxGeometry x="86" y="111" width="50" height="30" as="geometry" />
        </mxCell>
        <mxCell id="E4h3NQ1jbNbWEJE0jLHC-42" value="" style="ellipse;whiteSpace=wrap;html=1;aspect=fixed;" parent="1" vertex="1">
          <mxGeometry x="55" y="147" width="30" height="30" as="geometry" />
        </mxCell>
        <mxCell id="E4h3NQ1jbNbWEJE0jLHC-43" value="Cognome" style="text;html=1;align=center;verticalAlign=middle;resizable=0;points=[];autosize=1;strokeColor=none;fillColor=none;" parent="1" vertex="1">
          <mxGeometry x="75" y="147" width="80" height="30" as="geometry" />
        </mxCell>
        <mxCell id="E4h3NQ1jbNbWEJE0jLHC-44" value="" style="ellipse;whiteSpace=wrap;html=1;aspect=fixed;" parent="1" vertex="1">
          <mxGeometry x="54" y="187" width="30" height="30" as="geometry" />
        </mxCell>
        <mxCell id="E4h3NQ1jbNbWEJE0jLHC-45" value="&lt;span style=&quot;font-size: 11px;&quot;&gt;Posizione&lt;/span&gt;" style="text;html=1;align=center;verticalAlign=middle;resizable=0;points=[];autosize=1;strokeColor=none;fillColor=none;" parent="1" vertex="1">
          <mxGeometry x="84" y="187" width="70" height="30" as="geometry" />
        </mxCell>
        <mxCell id="E4h3NQ1jbNbWEJE0jLHC-46" value="" style="ellipse;whiteSpace=wrap;html=1;aspect=fixed;" parent="1" vertex="1">
          <mxGeometry x="54" y="223" width="30" height="30" as="geometry" />
        </mxCell>
        <mxCell id="E4h3NQ1jbNbWEJE0jLHC-47" value="Dettagli" style="text;html=1;align=center;verticalAlign=middle;resizable=0;points=[];autosize=1;strokeColor=none;fillColor=none;" parent="1" vertex="1">
          <mxGeometry x="85" y="223" width="60" height="30" as="geometry" />
        </mxCell>
        <mxCell id="E4h3NQ1jbNbWEJE0jLHC-48" value="" style="ellipse;whiteSpace=wrap;html=1;aspect=fixed;" parent="1" vertex="1">
          <mxGeometry x="237" y="-130" width="30" height="30" as="geometry" />
        </mxCell>
        <mxCell id="E4h3NQ1jbNbWEJE0jLHC-49" value="&lt;span style=&quot;font-size: 11px;&quot;&gt;Nome&lt;/span&gt;" style="text;html=1;align=center;verticalAlign=middle;resizable=0;points=[];autosize=1;strokeColor=none;fillColor=none;" parent="1" vertex="1">
          <mxGeometry x="268" y="-130" width="50" height="30" as="geometry" />
        </mxCell>
        <mxCell id="E4h3NQ1jbNbWEJE0jLHC-50" value="" style="ellipse;whiteSpace=wrap;html=1;aspect=fixed;" parent="1" vertex="1">
          <mxGeometry x="237" y="-94" width="30" height="30" as="geometry" />
        </mxCell>
        <mxCell id="E4h3NQ1jbNbWEJE0jLHC-51" value="Descrizione" style="text;html=1;align=center;verticalAlign=middle;resizable=0;points=[];autosize=1;strokeColor=none;fillColor=none;" parent="1" vertex="1">
          <mxGeometry x="254" y="-94" width="90" height="30" as="geometry" />
        </mxCell>
        <mxCell id="E4h3NQ1jbNbWEJE0jLHC-52" value="" style="ellipse;whiteSpace=wrap;html=1;aspect=fixed;" parent="1" vertex="1">
          <mxGeometry x="236" y="-54" width="30" height="30" as="geometry" />
        </mxCell>
        <mxCell id="E4h3NQ1jbNbWEJE0jLHC-53" value="&lt;span style=&quot;font-size: 11px;&quot;&gt;Orari&lt;/span&gt;" style="text;html=1;align=center;verticalAlign=middle;resizable=0;points=[];autosize=1;strokeColor=none;fillColor=none;" parent="1" vertex="1">
          <mxGeometry x="264" y="-54" width="50" height="30" as="geometry" />
        </mxCell>
        <mxCell id="E4h3NQ1jbNbWEJE0jLHC-76" value="Contiene" style="rhombus;whiteSpace=wrap;html=1;" parent="1" vertex="1">
          <mxGeometry x="494" y="30" width="80" height="80" as="geometry" />
        </mxCell>
        <mxCell id="E4h3NQ1jbNbWEJE0jLHC-80" value="" style="endArrow=none;html=1;rounded=0;" parent="1" edge="1">
          <mxGeometry width="50" height="50" relative="1" as="geometry">
            <mxPoint x="451.86" y="80" as="sourcePoint" />
            <mxPoint x="451.86" y="60" as="targetPoint" />
          </mxGeometry>
        </mxCell>
        <mxCell id="E4h3NQ1jbNbWEJE0jLHC-82" value="Effettua" style="rhombus;whiteSpace=wrap;html=1;" parent="1" vertex="1">
          <mxGeometry x="102" y="320" width="80" height="80" as="geometry" />
        </mxCell>
        <mxCell id="E4h3NQ1jbNbWEJE0jLHC-84" value="Lavora per" style="rhombus;whiteSpace=wrap;html=1;" parent="1" vertex="1">
          <mxGeometry x="160" y="30" width="80" height="80" as="geometry" />
        </mxCell>
        <mxCell id="E4h3NQ1jbNbWEJE0jLHC-88" value="Possiede" style="rhombus;whiteSpace=wrap;html=1;" parent="1" vertex="1">
          <mxGeometry x="336" y="-134" width="80" height="80" as="geometry" />
        </mxCell>
        <mxCell id="E4h3NQ1jbNbWEJE0jLHC-91" value="Blocca" style="rhombus;whiteSpace=wrap;html=1;" parent="1" vertex="1">
          <mxGeometry x="580" y="245" width="80" height="80" as="geometry" />
        </mxCell>
        <mxCell id="5KknpFdX_ZA_T8gQZbC4-10" style="edgeStyle=orthogonalEdgeStyle;rounded=0;orthogonalLoop=1;jettySize=auto;html=1;entryX=0;entryY=0.5;entryDx=0;entryDy=0;" parent="1" source="5KknpFdX_ZA_T8gQZbC4-1" target="5KknpFdX_ZA_T8gQZbC4-2" edge="1">
          <mxGeometry relative="1" as="geometry" />
        </mxCell>
        <mxCell id="5KknpFdX_ZA_T8gQZbC4-11" style="edgeStyle=orthogonalEdgeStyle;rounded=0;orthogonalLoop=1;jettySize=auto;html=1;entryX=0;entryY=0.5;entryDx=0;entryDy=0;" parent="1" source="5KknpFdX_ZA_T8gQZbC4-1" target="5KknpFdX_ZA_T8gQZbC4-4" edge="1">
          <mxGeometry relative="1" as="geometry" />
        </mxCell>
        <mxCell id="5KknpFdX_ZA_T8gQZbC4-12" style="edgeStyle=orthogonalEdgeStyle;rounded=0;orthogonalLoop=1;jettySize=auto;html=1;entryX=0;entryY=0.5;entryDx=0;entryDy=0;" parent="1" source="5KknpFdX_ZA_T8gQZbC4-1" target="5KknpFdX_ZA_T8gQZbC4-6" edge="1">
          <mxGeometry relative="1" as="geometry" />
        </mxCell>
        <mxCell id="5KknpFdX_ZA_T8gQZbC4-15" style="edgeStyle=orthogonalEdgeStyle;rounded=0;orthogonalLoop=1;jettySize=auto;html=1;entryX=0;entryY=0.5;entryDx=0;entryDy=0;endArrow=doubleBlock;endFill=1;" parent="1" source="5KknpFdX_ZA_T8gQZbC4-1" target="5KknpFdX_ZA_T8gQZbC4-13" edge="1">
          <mxGeometry relative="1" as="geometry" />
        </mxCell>
        <mxCell id="5KknpFdX_ZA_T8gQZbC4-1" value="Orari" style="rounded=0;whiteSpace=wrap;html=1;" parent="1" vertex="1">
          <mxGeometry x="-150" y="-200" width="120" height="60" as="geometry" />
        </mxCell>
        <mxCell id="5KknpFdX_ZA_T8gQZbC4-2" value="" style="ellipse;whiteSpace=wrap;html=1;aspect=fixed;" parent="1" vertex="1">
          <mxGeometry x="-36" y="-130" width="30" height="30" as="geometry" />
        </mxCell>
        <mxCell id="5KknpFdX_ZA_T8gQZbC4-3" value="&lt;span style=&quot;font-size: 11px;&quot;&gt;Giorno&lt;/span&gt;" style="text;html=1;align=center;verticalAlign=middle;resizable=0;points=[];autosize=1;strokeColor=none;fillColor=none;" parent="1" vertex="1">
          <mxGeometry x="-11" y="-130" width="60" height="30" as="geometry" />
        </mxCell>
        <mxCell id="5KknpFdX_ZA_T8gQZbC4-4" value="" style="ellipse;whiteSpace=wrap;html=1;aspect=fixed;" parent="1" vertex="1">
          <mxGeometry x="-36" y="-94" width="30" height="30" as="geometry" />
        </mxCell>
        <mxCell id="5KknpFdX_ZA_T8gQZbC4-5" value="Orario ap" style="text;html=1;align=center;verticalAlign=middle;resizable=0;points=[];autosize=1;strokeColor=none;fillColor=none;" parent="1" vertex="1">
          <mxGeometry x="-11" y="-94" width="70" height="30" as="geometry" />
        </mxCell>
        <mxCell id="5KknpFdX_ZA_T8gQZbC4-6" value="" style="ellipse;whiteSpace=wrap;html=1;aspect=fixed;" parent="1" vertex="1">
          <mxGeometry x="-37" y="-54" width="30" height="30" as="geometry" />
        </mxCell>
        <mxCell id="5KknpFdX_ZA_T8gQZbC4-7" value="&lt;span style=&quot;font-size: 11px;&quot;&gt;Orario chius&lt;/span&gt;" style="text;html=1;align=center;verticalAlign=middle;resizable=0;points=[];autosize=1;strokeColor=none;fillColor=none;" parent="1" vertex="1">
          <mxGeometry x="-12" y="-54" width="80" height="30" as="geometry" />
        </mxCell>
        <mxCell id="5KknpFdX_ZA_T8gQZbC4-13" value="Possiedono" style="rhombus;whiteSpace=wrap;html=1;" parent="1" vertex="1">
          <mxGeometry x="20" y="-210" width="80" height="80" as="geometry" />
        </mxCell>
      </root>
    </mxGraphModel>
  </diagram>
</mxfile>
